<svg xmlns="http://www.w3.org/2000/svg" viewBox="0 0 21.333 32">
    <title>Figma</title>
    <path id="Path_1" data-name="Path 1" d="M19,24.333a5.333,5.333,0,1,1,5.333,5.333A5.333,5.333,0,0,1,19,24.333Z" transform="translate(-8.333 -8.333)" fill="#1abcfe"/>
    <path id="Path_2" data-name="Path 2" d="M0,43.333A5.333,5.333,0,0,1,5.333,38h5.333v5.333A5.333,5.333,0,0,1,0,43.333Z" transform="translate(0 -16.667)" fill="#0acf83"/>
    <path id="Path_3" data-name="Path 3" d="M19,0V10.667h5.333A5.333,5.333,0,0,0,24.333,0Z" transform="translate(-8.333)" fill="#ff7262"/>
    <path id="Path_4" data-name="Path 4" d="M0,5.333a5.333,5.333,0,0,0,5.333,5.333h5.333V0H5.333A5.333,5.333,0,0,0,0,5.333Z" fill="#f24e1e"/>
    <path id="Path_5" data-name="Path 5" d="M0,24.333a5.333,5.333,0,0,0,5.333,5.333h5.333V19H5.333A5.333,5.333,0,0,0,0,24.333Z" transform="translate(0 -8.333)" fill="#a259ff"/>
</svg>
