<svg xmlns="http://www.w3.org/2000/svg" xmlns:xlink="http://www.w3.org/1999/xlink" width="155.5" height="47" viewBox="0 0 155.5 47">
  <defs>
    <style>
      .cls-1, .cls-4 {
        fill: #fff;
      }

      .cls-2, .cls-3 {
        fill: #02002e;
      }

      .cls-3, .cls-4 {
        font-size: 20px;
        font-family: Montserrat-SemiBold, Montserrat;
        font-weight: 600;
      }

      .cls-5 {
        filter: url(#Path_989);
      }

      .cls-6 {
        filter: url(#Rectangle_399);
      }
    </style>
    <filter id="Rectangle_399" x="0" y="1.5" width="87" height="44" filterUnits="userSpaceOnUse">
      <feOffset input="SourceAlpha"/>
      <feGaussianBlur stdDeviation="2" result="blur"/>
      <feFlood flood-color="#38beff"/>
      <feComposite operator="in" in2="blur"/>
      <feComposite in="SourceGraphic"/>
    </filter>
    <filter id="Path_989" x="73.5" y="0" width="82" height="47" filterUnits="userSpaceOnUse">
      <feOffset input="SourceAlpha"/>
      <feGaussianBlur stdDeviation="2.5" result="blur-2"/>
      <feFlood flood-color="#38beff"/>
      <feComposite operator="in" in2="blur-2"/>
      <feComposite in="SourceGraphic"/>
    </filter>
  </defs>
  <g id="Group_7" data-name="Group 7" transform="translate(6 7.5)">
    <g class="cls-6" transform="matrix(1, 0, 0, 1, -6, -7.5)">
      <path id="Rectangle_399-2" data-name="Rectangle 399" class="cls-1" d="M7,0H75a0,0,0,0,1,0,0V32a0,0,0,0,1,0,0H7a7,7,0,0,1-7-7V7A7,7,0,0,1,7,0Z" transform="translate(6 7.5)"/>
    </g>
    <g class="cls-5" transform="matrix(1, 0, 0, 1, -6, -7.5)">
      <path id="Path_989-2" data-name="Path 989" class="cls-2" d="M0,0H58.315C63.112,0,67,3.582,67,8V24c0,4.418-3.888,8-8.685,8H0Z" transform="translate(81 7.5)"/>
    </g>
    <rect id="Rectangle_601" data-name="Rectangle 601" class="cls-1" width="11" height="32" transform="translate(64)"/>
    <text id="SENSO" class="cls-3" transform="translate(3 23)"><tspan x="0" y="0">SENSO</tspan></text>
    <text id="NIZER" class="cls-4" transform="translate(75 23)"><tspan x="0" y="0">NIZER</tspan></text>
  </g>
</svg>
